# xmcd
#
# Track frame offsets:
#	150
#	17025
#	32670
#	47370
#	61618
#	75190
#	94755
#	109380
#	127671
#	144987
#	161862
#	177507
#	192207
#	206455
#	220027
#	239592
#	254217
#	272508
#
# Disc length: 3864 seconds
#
# Revision: 1
# Processed by: cddbd v1.5.1PL2 Copyright (c) Steve Scherf et al.
# Submitted via: audiograbber 1.83.01
#
DISCID=f10f1612
DTITLE=Various Artist - PHMN0110-C
DYEAR=2001
DGENRE=Karaoke
TTITLE0=Trace Adkins - I'm Tryin'
TTITLE1=Martina McBride - When God Fearin' Women Get The Blues
TTITLE2=Andy Griggs - How Cool Is That?
TTITLE3=Gary Allan - Man Of Me
TTITLE4=Terri Clark - Getting There
TTITLE5=Jeff Carson - Real Life
TTITLE6=Clark Family Experience - Standin' Still
TTITLE7=Marshall Dyllon - She Ain't Gonna Cry
TTITLE8=Billy Dean/Suzy Bogguss/Jillian - Keep Mom And Dad In Love
TTITLE9=Trace Adkins - Vocal
TTITLE10=Martina McBride - Vocal
TTITLE11=Andy Griggs - Vocal
TTITLE12=Gary Allan - Vocal
TTITLE13=Terri Clark - Vocal
TTITLE14=Jeff Carson - Vocal
TTITLE15=Clark Family Experience - Vocal
TTITLE16=Marshall Dyllon - Vocal
TTITLE17=Billy Dean/Suzy Bogguss/Jillian - Vocal
EXTD=
EXTT0=
EXTT1=
EXTT2=
EXTT3=
EXTT4=
EXTT5=
EXTT6=
EXTT7=
EXTT8=
EXTT9=
EXTT10=
EXTT11=
EXTT12=
EXTT13=
EXTT14=
EXTT15=
EXTT16=
EXTT17=
PLAYORDER=
